<?xml version="1.0" encoding="UTF-8" ?>
<!DOCTYPE svg PUBLIC "-//W3C//DTD SVG 1.1//EN" "http://www.w3.org/Graphics/SVG/1.1/DTD/svg11.dtd">
<svg width="200pt" height="40pt" viewBox="0 0 200 40" version="1.1" xmlns="http://www.w3.org/2000/svg">
<g id="#f6e467ff">
<path fill="#f6e467" opacity="1.00" d=" M 35.38 6.54 C 39.12 5.14 43.17 6.71 46.18 9.00 C 45.38 10.30 44.57 11.60 43.77 12.90 C 41.70 10.47 36.96 9.42 35.49 13.02 C 34.87 16.88 39.86 17.26 42.28 18.80 C 49.58 21.81 47.93 33.98 40.46 35.63 C 35.92 37.10 31.30 34.59 28.86 30.76 C 29.98 29.59 31.09 28.43 32.20 27.25 C 33.44 29.33 35.29 31.57 37.98 31.36 C 41.28 31.32 42.87 26.64 40.48 24.49 C 37.57 22.30 33.34 22.03 31.17 18.83 C 28.46 14.62 30.66 8.23 35.38 6.54 Z" />
<path fill="#f6e467" opacity="1.00" d=" M 52.47 6.99 C 54.48 7.00 56.49 7.01 58.51 7.03 C 60.76 13.41 63.07 19.77 65.39 26.13 C 67.53 19.75 69.67 13.37 71.82 7.00 C 73.81 7.00 75.81 7.00 77.81 7.00 C 74.11 16.67 70.38 26.32 66.70 35.99 C 65.60 36.00 64.49 35.99 63.39 35.99 C 59.77 26.32 56.10 16.66 52.47 6.99 Z" />
</g>
<g id="#eae8e8ff">
<path fill="#eae8e8" opacity="1.00" d=" M 85.24 6.01 C 86.56 6.00 87.88 6.00 89.19 6.00 C 91.56 12.20 93.89 18.41 96.27 24.61 C 98.53 18.41 100.77 12.20 103.04 6.00 C 104.38 6.00 105.72 6.00 107.06 6.00 C 108.49 15.67 109.92 25.35 111.34 35.02 C 109.44 34.99 107.54 34.99 105.65 34.92 C 105.01 29.05 104.17 23.21 103.43 17.35 C 101.15 23.21 99.17 29.18 96.79 34.99 C 96.35 34.98 95.45 34.98 95.00 34.98 C 92.72 29.17 90.80 23.22 88.61 17.38 C 87.74 23.25 86.90 29.13 86.04 35.00 C 84.17 35.00 82.29 35.00 80.42 35.00 C 82.02 25.34 83.65 15.68 85.24 6.01 Z" />
<path fill="#eae8e8" opacity="1.00" d=" M 146.42 8.34 C 152.53 4.00 162.03 5.85 165.76 12.47 C 164.17 13.40 162.56 14.31 160.95 15.21 C 159.05 11.80 154.93 9.47 151.09 11.19 C 143.80 14.49 143.44 26.59 150.36 30.49 C 154.83 33.08 160.59 29.68 161.07 24.68 C 159.05 24.65 157.03 24.64 155.01 24.64 C 155.00 23.09 155.00 21.55 155.00 20.00 C 159.02 20.00 163.05 20.00 167.07 20.00 C 166.91 24.28 166.15 28.86 163.11 32.11 C 158.65 37.11 150.18 37.25 145.22 32.91 C 137.85 26.80 138.37 13.65 146.42 8.34 Z" />
<path fill="#eae8e8" opacity="1.00" d=" M 117.00 7.00 C 122.67 7.00 128.33 7.00 134.00 7.00 C 134.00 8.55 134.00 10.10 133.99 11.65 C 132.13 11.64 130.26 11.64 128.40 11.64 C 128.38 19.43 128.39 27.21 128.39 35.00 C 126.59 35.00 124.80 35.00 123.00 35.00 C 123.00 27.21 123.00 19.43 123.00 11.64 C 121.00 11.64 119.01 11.64 117.01 11.65 C 117.00 10.10 117.00 8.55 117.00 7.00 Z" />
</g>
</svg>
